 <svg  version="1.0" xmlns="http://www.w3.org/2000/svg"  width="300.000000pt" height="102.000000pt" viewBox="0 0 300.000000 102.000000"  preserveAspectRatio="xMidYMid meet">  <g transform="translate(0.000000,102.000000) scale(0.100000,-0.100000)" fill="#f5f5f5" stroke="none"> <path d="M2618 955 c-3 -6 -13 -38 -23 -71 -18 -67 -9 -108 22 -102 18 3 49 68 34 68 -5 0 -13 -9 -16 -20 -3 -11 -11 -20 -16 -20 -19 0 -21 30 -4 80 15 45 17 88 3 65z"/> <path d="M470 925 c-5 -14 -10 -34 -10 -43 0 -11 -7 -6 -19 14 -25 41 -40 50 -47 29 -5 -11 2 -25 19 -41 15 -14 30 -36 33 -49 10 -40 21 -29 26 25 5 51 17 76 25 53 8 -22 25 -14 21 9 -5 33 -36 35 -48 3z"/> <path d="M601 926 c-10 -25 -8 -75 19 -415 6 -68 10 -157 10 -198 0 -85 13 -89 30 -9 9 42 8 101 -5 263 -8 114 -18 222 -21 238 -5 28 -4 29 10 11 9 -11 18 -17 21 -14 5 5 -40 136 -50 146 -2 3 -9 -7 -14 -22z"/> <path d="M698 933 c-2 -10 7 -38 20 -63 19 -37 23 -56 20 -107 -5 -83 13 -65 19 19 4 52 1 74 -17 116 -23 54 -36 64 -42 35z"/> <path d="M906 942 c-2 -4 -7 -25 -12 -46 l-7 -39 -19 36 c-19 38 -42 48 -51 22 -4 -8 4 -22 19 -34 13 -10 29 -33 35 -50 14 -41 29 -39 29 3 0 19 5 47 10 61 8 22 13 25 24 16 10 -9 15 -8 19 3 9 24 -33 50 -47 28z"/> <path d="M1013 928 c-6 -15 -7 -61 -2 -128 33 -451 34 -481 14 -496 -22 -16 -78 -18 -106 -4 -28 16 -23 25 21 40 28 9 42 21 49 42 9 26 8 30 -17 41 -15 6 -71 12 -125 12 -92 0 -100 -2 -118 -24 -29 -36 -25 -51 14 -44 24 4 37 0 51 -16 11 -12 17 -22 15 -24 -2 -1 -31 -15 -64 -32 -41 -21 -86 -58 -150 -123 -96 -100 -124 -118 -155 -102 -33 18 -42 45 -30 90 9 33 21 46 80 84 58 38 71 51 81 85 15 50 4 66 -55 82 l-41 11 38 20 c73 37 82 125 21 197 -44 53 -89 50 -119 -9 -19 -36 -19 -51 -1 -76 11 -15 27 -19 73 -19 51 0 58 -2 58 -20 0 -15 -16 -25 -79 -45 -50 -17 -85 -34 -94 -48 -13 -20 -12 -22 14 -32 16 -6 49 -16 75 -21 26 -6 55 -17 65 -25 18 -14 18 -15 -3 -33 -13 -10 -57 -33 -99 -51 -94 -39 -192 -50 -246 -27 -74 31 -100 123 -53 187 26 36 50 98 41 107 -3 3 -11 -6 -17 -21 -14 -30 -34 -34 -48 -7 -12 22 0 73 39 154 15 32 24 60 20 62 -9 5 -59 -96 -80 -159 -7 -21 -9 -55 -6 -79 9 -60 9 -76 1 -133 -6 -41 -3 -60 13 -98 36 -81 128 -105 251 -67 l62 19 -8 -21 c-28 -76 9 -157 71 -157 42 0 72 22 149 112 55 63 81 83 150 119 l84 43 24 -23 c54 -51 108 -54 154 -8 61 61 64 107 26 495 -7 68 -1 92 13 56 4 -9 9 -14 12 -11 7 7 -37 147 -46 147 -4 0 -11 -10 -17 -22z m-529 -314 c26 -10 18 -24 -14 -24 -20 0 -30 5 -30 15 0 16 17 19 44 9z m415 -233 c11 -7 9 -11 -8 -21 -23 -12 -51 0 -51 21 0 12 41 11 59 0z"/> <path d="M1127 925 c-10 -20 -12 -42 -6 -79 4 -28 13 -127 19 -221 l12 -170 -31 -65 c-58 -120 -38 -225 43 -223 74 2 212 99 250 176 l24 47 7 -39 c15 -91 96 -167 197 -186 32 -6 36 -4 42 20 8 33 3 41 -31 50 -36 9 -87 46 -76 56 9 8 273 100 273 95 0 -2 -7 -22 -15 -45 -22 -64 7 -123 35 -70 6 11 9 25 6 32 -3 9 -5 9 -5 0 -1 -7 -8 -13 -17 -13 -12 0 -15 6 -10 23 4 12 9 35 13 51 4 19 15 31 33 38 21 7 50 43 50 61 0 1 -89 1 -197 -1 l-198 -3 25 20 c23 18 69 41 187 93 61 26 83 60 58 88 -27 30 -80 53 -107 47 -33 -9 -57 -61 -40 -88 17 -27 17 -26 -38 -54 -60 -30 -116 -78 -136 -116 -26 -51 -24 -52 111 -47 69 3 125 1 125 -4 0 -4 -7 -8 -15 -8 -8 0 -40 -9 -70 -21 -52 -19 -83 -49 -98 -94 -12 -34 -87 95 -87 150 -1 60 -31 171 -66 245 -35 72 -37 74 -46 48 -7 -21 -2 -46 27 -123 50 -135 57 -177 34 -214 -39 -65 -173 -150 -236 -151 -67 0 -80 62 -35 160 l20 45 2 -100 c2 -93 3 -98 15 -70 22 47 16 324 -11 525 l-6 45 21 -19 c12 -11 21 -17 21 -14 0 7 -51 142 -55 146 -2 2 -10 -8 -18 -23z m611 -281 l37 -16 -30 -13 c-27 -12 -32 -11 -47 7 -10 11 -15 24 -12 29 7 12 8 12 52 -7z"/> <path d="M1284 928 c4 -13 10 -31 13 -42 5 -16 2 -17 -25 -12 -24 6 -33 3 -46 -15 -8 -13 -13 -25 -10 -28 3 -3 9 0 13 7 5 8 17 11 33 7 19 -5 29 -2 37 12 9 15 12 16 20 4 14 -21 94 11 109 43 21 47 -26 50 -67 6 -30 -33 -41 -29 -55 18 -4 12 -12 22 -18 22 -6 0 -8 -9 -4 -22z"/> <path d="M1522 929 c-7 -19 -10 -20 -15 -6 -4 10 -11 17 -17 17 -16 0 -12 -27 5 -34 39 -15 8 -35 -132 -87 -80 -30 -152 -60 -160 -67 -17 -17 -17 -36 0 -29 92 41 192 78 355 133 108 36 201 70 206 75 25 23 -13 18 -119 -16 -65 -20 -119 -35 -121 -33 -2 2 -1 13 2 25 4 14 11 20 21 16 10 -4 14 -2 11 7 -7 23 -28 23 -36 -1z"/> <path d="M1802 938 c-23 -29 -23 -56 -1 -72 18 -12 20 -18 10 -30 -16 -19 -143 -106 -208 -142 -29 -16 -53 -33 -53 -37 0 -10 -5 -13 100 43 50 26 107 66 137 96 29 29 55 48 58 43 9 -14 25 -11 25 6 0 9 -7 18 -16 22 -10 4 -14 13 -10 29 11 43 -17 72 -42 42z"/> <path d="M1956 935 c-3 -9 -6 -29 -6 -43 l0 -27 -19 31 c-25 40 -40 50 -47 29 -4 -9 3 -23 19 -35 13 -11 28 -31 31 -45 9 -37 26 -21 26 24 0 44 8 55 28 39 11 -10 13 -8 10 12 -4 29 -33 39 -42 15z"/> <path d="M2030 925 c-12 -31 -6 -42 39 -68 28 -16 31 -16 31 -2 0 9 -13 24 -30 33 -16 9 -30 20 -30 25 0 12 28 8 34 -5 3 -7 4 -2 3 12 -3 35 -34 39 -47 5z"/> <path d="M2137 890 c-26 -93 -19 -140 21 -140 11 0 42 55 42 75 0 14 -18 2 -23 -15 -3 -11 -10 -20 -16 -20 -21 0 -24 30 -7 89 18 66 19 71 8 71 -5 0 -16 -27 -25 -60z"/> <path d="M2222 933 c-5 -10 -6 -51 -1 -93 4 -41 8 -89 8 -105 l1 -30 -104 9 c-122 10 -171 1 -199 -35 -27 -38 -15 -63 54 -109 l59 -41 -31 -32 c-17 -17 -34 -31 -38 -30 -4 1 -7 -6 -8 -15 0 -9 -13 -45 -27 -80 -22 -50 -27 -78 -27 -142 0 -94 23 -149 81 -188 30 -21 44 -23 105 -20 82 4 141 29 210 90 69 61 92 114 87 205 -2 36 -52 93 -81 93 -14 0 -20 11 -25 53 -3 28 -6 73 -6 100 0 41 3 49 25 57 25 9 59 62 48 74 -4 3 -23 6 -43 6 l-37 0 -11 88 c-5 48 -9 88 -8 90 2 1 23 -13 48 -33 78 -59 89 -95 103 -334 7 -113 17 -218 23 -234 23 -57 99 -61 130 -7 18 32 32 39 32 16 0 -7 7 -19 16 -27 8 -7 13 -21 11 -31 -3 -10 -1 -18 4 -18 5 0 9 5 9 11 0 7 14 8 40 4 46 -8 140 10 191 36 55 27 89 92 74 138 -9 30 -74 71 -111 71 -43 0 -103 -46 -144 -111 -19 -30 -35 -56 -37 -58 -8 -11 -33 25 -33 48 0 25 -1 25 -39 -17 -43 -46 -77 -54 -104 -24 -23 25 -27 51 -36 262 -11 239 -26 278 -140 351 -53 34 -57 35 -69 12z m-27 -281 l50 -7 -70 -33 c-38 -18 -77 -40 -87 -49 -16 -14 -19 -13 -44 16 -14 18 -39 38 -55 47 -16 8 -29 19 -29 24 0 11 156 12 235 2z m49 -143 c4 -44 6 -82 4 -84 -2 -1 -50 3 -108 11 -58 7 -111 13 -119 14 -22 0 29 50 51 50 11 0 17 4 14 8 -3 5 15 18 39 30 l44 21 -9 -25 c-13 -33 -13 -71 0 -79 14 -9 40 13 40 32 0 12 -3 13 -13 4 -21 -17 -26 -4 -15 38 9 33 32 57 59 60 4 1 10 -35 13 -80z m-224 -133 c-15 -40 -12 -76 6 -83 19 -7 29 4 38 37 7 24 6 24 -9 6 -23 -30 -38 -8 -24 33 9 24 15 30 28 25 9 -3 26 -9 39 -12 20 -4 22 -9 16 -31 -21 -73 7 -121 73 -121 40 0 79 34 88 77 13 55 12 55 45 38 35 -18 50 -43 50 -85 0 -24 -11 -42 -47 -78 -72 -71 -131 -97 -225 -97 -71 0 -79 2 -107 29 -68 65 -78 173 -26 276 27 52 27 53 46 33 17 -16 18 -24 9 -47z m858 1 c37 -38 35 -43 -37 -71 -54 -21 -166 -33 -175 -18 -3 5 18 35 47 66 47 50 57 56 93 56 32 0 46 -6 72 -33z m-644 -13 c10 -4 16 -18 16 -35 0 -54 -73 -64 -105 -15 -23 35 -10 56 35 56 21 0 45 -3 54 -6z"/> <path d="M1986 244 c-22 -22 -20 -25 12 -18 26 7 26 6 11 -12 -21 -25 -30 -51 -23 -69 11 -29 89 -13 132 27 36 34 25 41 -21 13 -39 -23 -97 -34 -97 -19 0 3 9 17 20 31 24 31 25 49 4 57 -21 8 -20 8 -38 -10z"/> <path d="M2233 201 c-44 -21 -83 -46 -86 -55 -9 -23 -1 -21 91 24 48 24 82 47 82 55 0 8 -1 15 -3 15 -2 0 -39 -18 -84 -39z"/> <path d="M2366 934 c-17 -44 3 -73 24 -34 9 16 8 19 -6 13 -14 -5 -15 -3 -5 15 7 12 8 22 2 22 -5 0 -12 -7 -15 -16z"/> <path d="M2430 929 c0 -12 11 -34 25 -50 25 -30 44 -84 46 -129 1 -21 2 -20 9 8 10 43 -4 104 -36 152 -30 44 -44 51 -44 19z"/> <path d="M2782 928 c-7 -7 -12 -26 -12 -42 l0 -31 -20 33 c-22 35 -35 40 -44 17 -3 -9 1 -18 10 -22 8 -3 22 -19 30 -36 12 -23 18 -27 25 -16 5 8 9 26 9 40 0 33 9 42 28 27 11 -10 13 -8 10 12 -4 28 -19 35 -36 18z"/> <path d="M225 888 c-15 -23 -15 -23 22 -26 l38 -4 -45 -24 -45 -25 35 6 c35 5 90 49 90 71 0 31 -73 32 -95 2z"/> <path d="M1680 839 c-41 -16 -117 -46 -168 -66 -52 -20 -97 -44 -103 -55 -5 -10 -8 -18 -6 -18 2 0 44 17 93 38 49 21 127 52 172 68 46 16 88 37 93 47 12 22 9 21 -81 -14z"/> <path d="M2019 827 c-20 -18 -74 -54 -118 -81 -45 -26 -80 -50 -78 -53 15 -14 210 107 230 144 15 25 3 22 -34 -10z"/> <path d="M2642 766 c-101 -34 -188 -69 -193 -77 -16 -25 -10 -30 21 -14 34 18 36 14 15 -45 -19 -53 -19 -61 0 -86 15 -19 15 -19 35 5 11 13 20 31 20 40 0 12 -5 10 -20 -9 -27 -35 -34 -9 -17 61 l14 54 151 50 c83 28 159 58 169 68 27 26 7 22 -195 -47z"/> <path d="M316 802 c-3 -5 -8 -28 -12 -51 l-7 -42 -24 36 c-25 37 -47 45 -57 19 -8 -22 -9 -21 24 -32 16 -6 35 -22 42 -36 17 -38 25 -32 32 25 6 43 9 49 21 39 12 -10 15 -9 15 8 0 22 -25 48 -34 34z"/> <path d="M485 780 c-8 -25 -22 -25 -47 -3 -19 17 -20 16 -38 -7 -19 -25 -19 -25 3 -42 28 -22 37 -22 52 -1 12 16 14 16 40 -1 26 -17 27 -17 41 1 20 27 17 37 -15 56 -29 17 -30 17 -36 -3z"/> <path d="M2902 788 c-7 -7 -12 -26 -13 -42 0 -28 -1 -29 -12 -13 -33 51 -35 53 -49 39 -11 -11 -9 -17 9 -32 13 -10 28 -31 34 -46 10 -27 12 -28 19 -9 5 11 9 32 9 46 1 33 10 42 29 27 11 -10 13 -8 10 12 -4 28 -19 35 -36 18z"/> <path d="M945 768 c-173 -61 -274 -102 -279 -114 -7 -18 8 -18 44 1 36 18 35 19 10 -36 -29 -66 -26 -149 7 -149 11 0 43 54 43 75 0 15 -18 2 -23 -16 -3 -12 -10 -18 -16 -14 -16 9 -12 64 8 115 l18 45 113 40 c63 22 115 46 118 53 4 14 -2 14 -43 0z"/> <path d="M2656 698 c-3 -7 -7 -26 -11 -41 l-6 -29 -22 33 c-12 18 -28 34 -34 37 -18 5 -16 -35 2 -41 18 -7 54 -78 48 -94 -3 -7 0 -13 6 -13 5 0 -1 -11 -15 -25 -14 -14 -23 -32 -20 -40 3 -8 11 -41 18 -75 6 -33 16 -60 20 -60 12 0 10 28 -7 90 -19 71 -20 67 20 74 41 8 45 27 12 53 -13 10 -21 26 -19 38 8 55 13 65 32 65 23 0 26 10 8 28 -15 15 -28 15 -32 0z"/> <path d="M2757 630 c-17 -59 -11 -110 12 -110 15 0 41 42 40 65 0 19 -1 19 -11 -2 -6 -13 -15 -23 -20 -23 -17 0 -18 27 -3 69 17 50 18 61 7 61 -5 0 -16 -27 -25 -60z"/> <path d="M191 640 c-7 -23 -9 -50 -6 -61 9 -28 39 -20 42 11 1 14 0 19 -3 13 -3 -7 -10 -13 -16 -13 -10 0 -7 37 7 73 4 9 3 17 -2 17 -6 0 -15 -18 -22 -40z"/> <path d="M1094 667 c-3 -9 -6 -37 -7 -64 -2 -53 19 -67 35 -24 7 21 6 22 -7 11 -24 -20 -29 -4 -16 41 12 39 8 69 -5 36z"/> <path d="M930 617 c-12 -52 -12 -60 3 -74 14 -15 18 -15 41 1 34 22 35 62 2 78 -14 6 -27 20 -28 32 -3 13 -9 -2 -18 -37z"/> <path d="M292 648 c-15 -15 -16 -32 -2 -23 6 3 10 1 10 -4 0 -6 -5 -11 -10 -11 -6 0 -15 -11 -21 -23 -9 -19 -5 -41 15 -106 29 -91 31 -113 15 -142 -10 -19 -12 -19 -35 -4 -27 17 -38 14 -54 -15 -9 -16 -5 -22 21 -36 26 -13 33 -14 40 -2 5 7 9 17 9 21 0 5 14 0 31 -10 30 -17 31 -17 45 1 19 27 18 35 -11 48 -20 9 -25 18 -25 49 0 20 -9 66 -20 101 -26 83 -25 87 10 95 35 6 40 31 12 56 -14 13 -21 14 -30 5z"/> <path d="M836 606 c-20 -67 -20 -77 -1 -102 15 -19 15 -19 35 5 11 13 20 31 20 40 -1 14 -2 14 -14 -1 -7 -10 -18 -18 -25 -18 -15 0 -14 25 4 83 8 26 10 47 5 47 -5 0 -16 -24 -24 -54z"/> <path d="M1215 648 c-5 -12 2 -29 19 -49 29 -34 42 -72 30 -90 -4 -8 -3 -9 4 -5 19 11 14 -2 -9 -25 -15 -15 -19 -27 -14 -47 4 -15 12 -54 19 -86 8 -40 15 -54 19 -42 4 9 0 47 -10 83 -17 69 -12 82 29 83 29 0 32 22 6 45 -22 19 -24 27 -19 66 5 34 10 44 24 43 12 -1 17 4 15 15 -6 31 -32 17 -44 -24 -9 -33 -12 -36 -18 -20 -3 11 -15 31 -26 45 -17 22 -20 23 -25 8z"/> <path d="M2865 594 c-19 -70 -11 -114 19 -114 17 0 36 30 36 56 0 16 -1 16 -14 -2 -12 -15 -17 -16 -27 -7 -10 10 -10 21 0 55 7 24 15 51 17 61 3 9 1 17 -4 17 -5 0 -17 -30 -27 -66z"/> <path d="M1503 606 c1 -24 -3 -41 -10 -43 -9 -3 -13 6 -13 26 0 16 -4 33 -10 36 -16 10 -12 -59 5 -81 14 -18 16 -18 28 -2 11 13 16 15 25 6 9 -9 15 -9 23 -1 14 14 4 79 -13 89 -11 7 -9 -10 7 -50 6 -13 4 -17 -5 -14 -8 2 -19 20 -27 39 l-13 34 3 -39z"/> <path d="M1874 624 c-3 -10 -10 -29 -15 -42 -13 -32 -11 -76 3 -90 15 -15 48 13 48 41 0 20 0 21 -14 1 -23 -30 -30 -9 -18 48 12 49 9 81 -4 42z"/> <path d="M2342 593 c-5 -10 -15 -39 -22 -65 -11 -42 -11 -51 5 -75 l18 -27 18 23 c11 13 19 33 18 45 0 21 0 21 -11 -1 -6 -13 -15 -23 -20 -23 -18 0 -19 31 -3 80 17 51 15 79 -3 43z"/> <path d="M374 574 c-3 -10 -10 -31 -16 -46 -7 -18 -6 -33 3 -49 l12 -23 18 23 c11 13 19 28 19 35 0 6 -7 2 -15 -8 -22 -29 -29 -13 -17 36 11 42 8 68 -4 32z"/> <path d="M218 513 c-3 -4 -11 -29 -17 -54 -10 -36 -10 -52 -1 -69 11 -21 12 -21 31 -4 24 21 27 53 4 34 -24 -20 -29 -5 -15 45 11 40 10 70 -2 48z"/> <path d="M1366 491 c-4 -6 -10 -33 -13 -61 -5 -42 -3 -50 10 -50 9 0 21 9 27 19 14 28 12 39 -4 18 -21 -27 -30 -3 -16 39 12 34 9 56 -4 35z"/> <path d="M2537 464 c-4 -4 -7 -21 -7 -38 l0 -31 -20 33 c-11 18 -25 30 -30 27 -15 -9 -12 -32 5 -39 8 -3 20 -18 26 -33 10 -26 12 -27 19 -8 5 11 9 31 9 44 1 17 5 22 17 17 11 -4 14 -1 12 11 -3 18 -20 27 -31 17z"/> <path d="M1732 248 c-18 -18 -15 -27 8 -21 24 6 26 -9 5 -27 -8 -7 -15 -25 -15 -41 0 -26 4 -29 31 -29 34 0 64 13 97 43 33 30 27 42 -8 17 -30 -22 -110 -40 -110 -25 0 4 11 20 25 37 26 31 32 48 16 48 -5 0 -15 2 -23 5 -7 3 -19 0 -26 -7z"/> <path d="M770 230 c-6 -11 -8 -26 -3 -33 4 -6 6 -24 4 -39 -2 -26 0 -28 33 -28 25 0 45 9 71 31 41 37 40 50 -2 20 -34 -24 -79 -36 -87 -23 -3 5 6 20 19 32 14 13 25 28 25 34 0 6 -5 5 -12 -2 -15 -15 -38 -16 -38 -1 0 5 5 7 10 4 6 -3 10 1 10 9 0 22 -17 20 -30 -4z"/> <path d="M2871 216 c-13 -13 -30 -22 -37 -19 -8 3 -41 -7 -74 -21 -33 -15 -82 -30 -109 -33 -29 -3 -48 -10 -44 -15 9 -16 96 0 155 27 34 16 56 21 62 15 30 -30 120 4 114 43 -4 31 -39 33 -67 3z m35 -21 c-27 -21 -53 -20 -36 0 7 8 22 15 34 15 21 -1 21 -1 2 -15z"/> <path d="M503 193 c-40 -20 -73 -42 -73 -49 0 -19 -1 -19 79 21 39 20 71 42 71 50 0 8 -1 15 -2 14 -2 0 -36 -16 -75 -36z"/> <path d="M1367 209 c-3 -12 -10 -18 -16 -14 -6 3 -8 11 -5 17 4 7 2 8 -4 4 -7 -4 -12 -14 -12 -22 0 -8 -5 -14 -12 -14 -20 0 31 -41 61 -50 21 -6 36 -3 57 11 16 10 39 19 52 19 23 0 26 9 16 48 -6 22 -44 32 -44 12 0 -6 4 -9 9 -8 9 3 11 -2 11 -21 0 -5 -13 -14 -30 -21 -16 -7 -27 -16 -24 -21 3 -5 0 -9 -5 -9 -6 0 -11 5 -11 12 0 9 -3 9 -12 0 -15 -15 -31 -16 -22 -1 4 7 7 25 6 41 0 17 3 26 10 22 5 -3 8 -15 5 -25 -3 -10 0 -20 7 -22 13 -5 70 22 63 30 -3 2 -14 0 -25 -6 -16 -8 -21 -6 -32 14 -16 31 -36 32 -43 4z"/> <path d="M1010 195 c-12 -14 -12 -16 1 -13 20 4 27 -13 9 -23 -8 -4 -32 -11 -52 -14 -21 -3 -38 -10 -38 -16 0 -15 82 2 113 24 16 10 27 26 25 36 -4 22 -42 26 -58 6z"/> </g> </svg> 